<svg width="254" height="15" viewBox="0 0 254 15" fill="none" xmlns="http://www.w3.org/2000/svg">
<path d="M6.81739 14.3903C3.00124 14.3903 0 11.6077 0 7.53321C0 3.45868 3.00124 0.676067 6.81739 0.676067C9.16273 0.676067 10.7925 1.80899 11.846 3.29967L10.4547 4.07482C9.69938 2.96178 8.32795 2.14687 6.81739 2.14687C3.91553 2.14687 1.70932 4.37296 1.70932 7.53321C1.70932 10.6736 3.91553 12.9195 6.81739 12.9195C8.32795 12.9195 9.69938 12.1245 10.4547 10.9916L11.8658 11.7667C10.7528 13.2773 9.16273 14.3903 6.81739 14.3903Z" fill="white"/>
<path d="M34.0962 14.1618H26.285V0.904641H27.9347V12.691H34.0962V14.1618Z" fill="white"/>
<path d="M54.4483 14.3903C50.5129 14.3903 47.8694 11.4487 47.8694 7.53321C47.8694 3.61768 50.5129 0.676067 54.4483 0.676067C58.3638 0.676067 61.0272 3.61768 61.0272 7.53321C61.0272 11.4487 58.3638 14.3903 54.4483 14.3903ZM54.4483 12.9195C57.4098 12.9195 59.3179 10.614 59.3179 7.53321C59.3179 4.43259 57.4098 2.14687 54.4483 2.14687C51.4669 2.14687 49.5787 4.43259 49.5787 7.53321C49.5787 10.614 51.4669 12.9195 54.4483 12.9195Z" fill="white"/>
<path d="M78.706 14.281C75.1085 14.281 73.2998 12.1543 73.2998 8.8947V0.785383H74.9495V8.85495C74.9495 11.2798 76.2613 12.8102 78.706 12.8102C81.1507 12.8102 82.4625 11.2798 82.4625 8.85495V0.785383H84.1122V8.87482C84.1122 12.1742 82.3035 14.281 78.706 14.281Z" fill="white"/>
<path d="M101.831 14.1618H97.299V0.904641H101.831C105.945 0.904641 108.628 3.78663 108.628 7.54315C108.628 11.3195 105.945 14.1618 101.831 14.1618ZM101.831 12.691C105.051 12.691 106.919 10.3854 106.919 7.54315C106.919 4.68104 105.11 2.37545 101.831 2.37545H98.9487V12.691H101.831Z" fill="white"/>
<path d="M123.58 12.8296C122.576 12.8296 121.718 12.4821 121.007 11.7869C120.295 11.0917 119.939 10.2421 119.939 9.238C119.939 8.37732 120.198 7.61044 120.717 6.93736C121.235 6.26427 121.914 5.83393 122.753 5.64635C123.028 4.6312 123.58 3.80915 124.408 3.18019C125.235 2.55124 126.173 2.23677 127.221 2.23677C128.512 2.23677 129.608 2.68652 130.507 3.58603C131.407 4.48555 131.856 5.58058 131.856 6.87115C132.617 6.95942 133.249 7.2878 133.751 7.85629C134.254 8.42477 134.504 9.08947 134.504 9.8504C134.504 10.678 134.214 11.3815 133.635 11.961C133.056 12.5405 132.353 12.8301 131.525 12.8296H123.58Z" fill="white"/>
<path d="M152.304 14.1618H150.654V0.904636H152.304V14.1618Z" fill="white"/>
<path d="M176.621 14.3903C172.805 14.3903 169.804 11.6077 169.804 7.53321C169.804 3.45868 172.805 0.676067 176.621 0.676067C178.967 0.676067 180.596 1.80899 181.65 3.29967L180.258 4.07482C179.503 2.96178 178.132 2.14687 176.621 2.14687C173.719 2.14687 171.513 4.37296 171.513 7.53321C171.513 10.6736 173.719 12.9195 176.621 12.9195C178.132 12.9195 179.503 12.1245 180.258 10.9916L181.67 11.7667C180.557 13.2773 178.967 14.3903 176.621 14.3903Z" fill="white"/>
<path d="M199.994 14.3903C196.059 14.3903 193.416 11.4487 193.416 7.53321C193.416 3.61768 196.059 0.676067 199.994 0.676067C203.91 0.676067 206.573 3.61768 206.573 7.53321C206.573 11.4487 203.91 14.3903 199.994 14.3903ZM199.994 12.9195C202.956 12.9195 204.864 10.614 204.864 7.53321C204.864 4.43259 202.956 2.14687 199.994 2.14687C197.013 2.14687 195.125 4.43259 195.125 7.53321C195.125 10.614 197.013 12.9195 199.994 12.9195Z" fill="white"/>
<path d="M229.738 14.1618H228.148L220.416 3.58787V14.1618H218.766V0.904636H220.456L228.088 11.2599V0.904636H229.738V14.1618Z" fill="white"/>
<path d="M248.609 14.3804C246.304 14.3804 244.614 13.5059 243.521 12.2736L244.495 11.0214C245.37 11.9953 246.801 12.9096 248.669 12.9096C251.034 12.9096 251.789 11.6376 251.789 10.6239C251.789 7.20526 243.938 9.09346 243.938 4.36302C243.938 2.17669 245.886 0.686006 248.49 0.686006C250.517 0.686006 252.088 1.36178 253.201 2.53445L252.207 3.74687C251.213 2.65371 249.822 2.15681 248.371 2.15681C246.781 2.15681 245.648 3.01147 245.648 4.26364C245.648 7.24501 253.499 5.53569 253.499 10.4848C253.499 12.4127 252.187 14.3804 248.609 14.3804Z" fill="white"/>
</svg>
